<svg xmlns="http://www.w3.org/2000/svg" width="32" height="32" viewBox="0 0 100 100"><rect width="100" height="100" rx="0" fill="#0f172a"></rect><path fill="#38b3ac" d="M49.20 74.43L42.96 74.43L38.84 60.50L21.68 60.50L17.55 74.43L11.46 74.43L26.45 25.57L34.21 25.57L49.20 74.43ZM37.44 55.39L30.57 31.80L29.95 31.80L23.08 55.39L37.44 55.39ZM83.15 74.43L83.15 49.93L83.15 34.46L82.59 34.46L72.30 59.59L62.01 34.46L61.45 34.46L61.45 49.93L61.45 74.43L56.05 74.43L56.05 25.57L63.62 25.57L72.23 47.13L72.65 47.13L81.26 25.57L88.53 25.57L88.53 74.43L83.15 74.43Z"></path></svg>
